<svg width="861" height="862" viewBox="0 0 861 862" fill="none" xmlns="http://www.w3.org/2000/svg">
  <circle cx="431" cy="431" r="430" fill="white"/>
  <path fill-rule="evenodd" clip-rule="evenodd" d="M430.989 1V215.5H348.991V262H472.987C527.653 266.028 637.383 305.334 638.983 439.063C640.583 572.792 528.986 614.28 472.987 618.308H348.991V664.5H430.989V861C193.511 860.994 1 668.479 1 431C1 193.521 193.511 1.0062 430.989 1Z" fill="black"/>
  <path d="M430.989 215.5V216H431.489V215.5H430.989ZM430.989 1H431.489V0.499987L430.989 0.5V1ZM348.991 215.5V215H348.491V215.5H348.991ZM348.991 262H348.491V262.5H348.991V262ZM472.987 262L473.024 261.501L473.006 261.5H472.987V262ZM638.983 439.063L639.483 439.057L638.983 439.063ZM472.987 618.308V618.808H473.005L473.023 618.806L472.987 618.308ZM348.991 618.308V617.808H348.491V618.308H348.991ZM348.991 664.5H348.491V665H348.991V664.5ZM430.989 664.5H431.489V664H430.989V664.5ZM430.989 861V861.5H431.489V861H430.989ZM431.489 215.5V1H430.489V215.5H431.489ZM348.991 216H430.989V215H348.991V216ZM349.491 262V215.5H348.491V262H349.491ZM472.987 261.5H348.991V262.5H472.987V261.5ZM639.483 439.057C638.681 372.035 610.773 328.636 576.193 301.5C541.633 274.38 500.433 263.521 473.024 261.501L472.951 262.499C500.207 264.507 541.204 275.315 575.576 302.287C609.927 329.243 637.685 372.362 638.483 439.069L639.483 439.057ZM473.023 618.806C501.102 616.787 543.103 605.381 577.896 577.714C612.71 550.032 640.285 506.084 639.483 439.057L638.483 439.069C639.281 505.771 611.858 549.431 577.273 576.932C542.668 604.449 500.871 615.801 472.952 617.809L473.023 618.806ZM348.991 618.808H472.987V617.808H348.991V618.808ZM349.491 664.5V618.308H348.491V664.5H349.491ZM430.989 664H348.991V665H430.989V664ZM431.489 861V664.5H430.489V861H431.489ZM430.989 860.5C193.788 860.494 1.5 668.202 1.5 431H0.5C0.5 668.755 193.235 861.494 430.989 861.5V860.5ZM1.5 431C1.5 193.798 193.788 1.50619 430.989 1.5V0.5C193.235 0.506208 0.5 193.245 0.5 431H1.5Z" fill="black"/>
  <path fill-rule="evenodd" clip-rule="evenodd" d="M399 545H466C521.228 545 566 500.228 566 445V431C566 375.772 521.228 331 466 331H399V545Z" fill="white"/>
  <path fill-rule="evenodd" clip-rule="evenodd" d="M399 504H458.5C493.018 504 521 476.018 521 441.5C521 406.982 493.018 379 458.5 379H399V504Z" fill="black"/>
  <path fill-rule="evenodd" clip-rule="evenodd" d="M430.989 771C243.217 770.994 91 618.773 91 431C91 243.227 243.217 91.0062 430.989 91V1C193.511 1.0062 1 193.521 1 431C1 668.479 193.511 860.994 430.989 861V771Z" fill="#D44F53"/>
</svg>
